<svg width="52" height="52" viewBox="0 0 52 52" fill="none" xmlns="http://www.w3.org/2000/svg">
<rect x="0.5" y="0.5" width="51" height="51" rx="7.5" fill="white"/>
<rect x="0.5" y="0.5" width="51" height="51" rx="7.5" stroke="#CEC4B8"/>
<path d="M37.0111 31.0189V14.4954C36.9889 13.1128 35.906 12 34.5469 12H17.5967C13.9392 12.0562 11 15.1024 11 18.8342C11 20.0932 11.3315 21.1723 11.8398 22.1165C12.2707 22.9032 12.9447 23.6452 13.6077 24.196C13.7956 24.3533 13.7072 24.2859 14.2818 24.6457C15.0773 25.1402 15.9834 25.3875 15.9834 25.3875L15.9724 35.2678C15.9945 35.7399 16.0387 36.1895 16.1602 36.6054C16.5359 37.9994 17.4862 39.0672 18.779 39.5842C19.3204 39.7978 19.9282 39.9439 20.5801 39.9551L34.116 40C36.8122 40 38.9999 37.7745 38.9999 35.0206C39.0111 33.3906 38.2153 31.9295 37.0111 31.0189Z" fill="#FFEEDA"/>
<path d="M36.9886 35.0926C36.9313 36.7055 35.4551 38 33.647 38L24 37.9691C24.7667 37.1679 25.236 36.1301 25.236 35.0001C25.236 33.2225 24.0573 32 24.0573 32H33.6584C35.5009 32 37 33.3459 37 35.0001L36.9886 35.0926Z" fill="#EBC28E"/>
<path d="M14.4902 22.9785C13.4189 21.9263 12.6678 20.5655 12.6678 18.953V18.7815C12.7562 16.0254 14.9431 13.8069 17.6049 13.7268H34.548C34.9898 13.7497 35.3433 14.0699 35.3433 14.5388V29.3826C35.73 29.4512 35.9176 29.5084 36.2933 29.6455C36.5915 29.76 37 30 37 30V14.5388C36.978 13.1321 35.8956 12 34.537 12H17.5939C13.938 12.0572 11 15.1563 11 18.953C11 21.1601 11.972 23.047 13.5625 24.3736C13.6729 24.4651 13.7723 24.5795 14.0595 24.5795C14.5565 24.5795 14.91 24.1678 14.8879 23.7217C14.8768 23.3443 14.7222 23.2072 14.4902 22.9785Z" fill="#101010"/>
<path d="M34.1071 29.9503H20.8205C19.9259 29.9616 19.208 30.6981 19.208 31.6159V33.576C19.2301 34.4824 19.9811 35.2528 20.8757 35.2528H21.8587V33.576H20.8757V31.6612C20.8757 31.6612 21.1187 31.6612 21.4169 31.6612C23.0956 31.6612 24.3328 33.2586 24.3328 34.9695C24.3328 36.4878 22.9853 38.4252 20.7322 38.2665C18.7331 38.1307 17.6507 36.3064 17.6507 34.9695V18.3596C17.6507 17.6118 17.0543 17 16.3253 17H15V18.6995H15.983V34.9809C15.9277 38.2892 18.2802 39.9547 20.7322 39.9547L34.1181 40C36.8131 40 39 37.7568 39 34.9809C39 32.2049 36.8021 29.9503 34.1071 29.9503ZM37.3321 35.0829C37.2771 36.8616 35.8523 38.2892 34.1071 38.2892L24.7965 38.2553C25.5366 37.3715 25.9894 36.2271 25.9894 34.9809C25.9894 33.0208 24.8518 31.6724 24.8518 31.6724H34.1181C35.8963 31.6724 37.3433 33.1566 37.3433 34.9809L37.3321 35.0829Z" fill="#101010"/>
<path d="M30.16 19H20V17H30.16C30.6192 17 31 17.44 31 18C31 18.5467 30.6304 19 30.16 19Z" fill="#101010"/>
<path d="M30.16 27H20V25H30.16C30.6192 25 31 25.44 31 26C31 26.5466 30.6304 27 30.16 27Z" fill="#101010"/>
<path d="M32.1565 23H20V21H32.1452C32.6124 21 32.9998 21.44 32.9998 22C33.0111 22.5466 32.6238 23 32.1565 23Z" fill="#101010"/>
</svg>
