<svg width="28" height="28" viewBox="0 0 28 28" fill="none" xmlns="http://www.w3.org/2000/svg">
<rect width="28" height="28" rx="7.25926" fill="#0B141E"/>
<path d="M15.8972 13.8077L21.2385 7H18.0831C17.4295 7.00738 16.8667 7.31508 16.3911 7.92703L13.7403 11.3235L11.0897 7.92703C10.6067 7.30778 10.0403 7 9.39757 7H7.31338C6.95749 7 6.77958 7.15024 6.77958 7.45072C6.77958 7.60088 6.84858 7.75843 6.98293 7.93064L11.5798 13.8077L8.7004 17.5156L6.70335 20.084C6.569 20.2599 6.5 20.4174 6.5 20.5603C6.53991 20.8534 6.71782 21 7.04104 21H9.10344C9.7498 21 10.309 20.6959 10.7883 20.084L13.7403 16.2845L16.6888 20.084C17.1645 20.6959 17.7273 21 18.3737 21H21.5L15.8972 13.8077Z" fill="#9FF3FF"/>
<path d="M16.5 13.5L19.5 17V10L16.5 13.5Z" fill="#9FF3FF"/>
</svg>
