<svg width="24" height="24" viewBox="0 0 24 24" fill="none" xmlns="http://www.w3.org/2000/svg">
<circle cx="12" cy="12" r="12" fill="#D9D9D9"/>
<circle cx="12" cy="12" r="12" fill="#303030"/>
<path d="M11.9996 14.0576L13.9773 17.0591L15.8041 16.0353L13.207 12.0766L11.9996 14.0576Z" fill="#24A2EE"/>
<path d="M17.7055 14.8646L17.7042 14.0151L14.9307 9.58698L13.9011 11.3765L16.5786 15.8152L17.5472 15.2402C17.5941 15.2012 17.6324 15.1525 17.6597 15.0974C17.687 15.0422 17.7027 14.9817 17.7056 14.9199L17.7055 14.8646Z" fill="#24A2EE"/>
<path d="M5.65903 15.6336L6.9777 16.4383L11.3659 8.98518L10.6212 8.96478C9.98664 8.95529 9.30308 9.12993 8.98937 9.67241L6.49746 13.7629L5.65951 15.1271V15.634L5.65903 15.6336Z" fill="#24A2EE"/>
<path d="M14.5422 8.96428L12.4043 8.97183L7.56714 16.7368L9.25782 17.6838L9.71755 16.9252L14.5422 8.96428Z" fill="#24A2EE"/>
<path d="M18.341 9.22318C18.3315 9.01783 18.2703 8.81777 18.1626 8.64026C18.0549 8.46275 17.9039 8.31311 17.7227 8.20425L12.5823 5.35945C12.3987 5.27267 12.197 5.22754 11.9925 5.22754C11.7881 5.22754 11.5863 5.27267 11.4028 5.35945C11.3599 5.38025 6.40379 8.14644 6.40379 8.14644C6.33493 8.17826 6.26907 8.21577 6.20694 8.25854C6.04601 8.36867 5.91311 8.51246 5.81821 8.67911C5.72332 8.84576 5.66889 9.03094 5.65903 9.22074V15.1125L6.54178 13.8067L6.53498 9.26087C6.53911 9.19855 6.55755 9.13788 6.58898 9.08324C6.6204 9.0286 6.66402 8.98135 6.71671 8.94489C6.74004 8.92878 11.7808 6.12089 11.7968 6.11317C11.8571 6.08491 11.9233 6.07007 11.9904 6.06977C12.0576 6.06946 12.1239 6.0837 12.1845 6.11142L17.2585 8.92019C17.3176 8.9563 17.3668 9.00557 17.4019 9.06382C17.4371 9.12208 17.4571 9.18763 17.4604 9.25491V14.8863C17.4592 14.9447 17.445 15.0022 17.4189 15.0549C17.3927 15.1075 17.3552 15.1543 17.3087 15.1919L16.3245 15.7404L15.8172 16.0236L14.003 17.0354L12.1631 18.0616C12.0614 18.0961 11.9501 18.094 11.8499 18.0556L9.67312 16.8508L9.2285 17.5765L11.1848 18.6603C11.2495 18.6957 11.3071 18.7271 11.3544 18.7527C11.4277 18.7917 11.4776 18.8186 11.4951 18.8268C11.6588 18.8958 11.8358 18.9309 12.0144 18.9296C12.1783 18.9298 12.3408 18.9004 12.4934 18.8429L17.8373 15.8647C17.988 15.7519 18.1113 15.6086 18.1982 15.4449C18.2852 15.2813 18.3339 15.1013 18.3407 14.9176L18.341 9.22318Z" fill="#24A2EE"/>
</svg>
