<svg width="40" height="40" viewBox="0 0 40 40" fill="none" xmlns="http://www.w3.org/2000/svg">
<path d="M17.5672 36.5666C17.1839 36.5666 16.8172 36.3999 16.5672 36.0666L14.8839 33.8166C14.5339 33.3499 14.0672 33.0832 13.5672 33.0499C13.0672 33.0166 12.5672 33.2499 12.1672 33.6666C9.75052 36.2499 7.91721 36.0333 7.03387 35.6999C6.13387 35.3499 4.61719 34.1999 4.61719 30.4999V11.7333C4.61719 4.33327 6.75052 2.08325 13.7339 2.08325H26.3172C33.3006 2.08325 35.4339 4.33327 35.4339 11.7333V18.8332C35.4339 19.5166 34.8672 20.0832 34.1839 20.0832C33.5006 20.0832 32.9339 19.5166 32.9339 18.8332V11.7333C32.9339 5.7166 31.8839 4.58325 26.3172 4.58325H13.7339C8.16719 4.58325 7.11719 5.7166 7.11719 11.7333V30.4999C7.11719 32.2499 7.55052 33.2166 7.95052 33.3666C8.25052 33.4832 9.06723 33.3166 10.3339 31.9666C11.2506 30.9999 12.4505 30.4832 13.7005 30.5499C14.9339 30.6166 16.1005 31.2666 16.8839 32.3166L18.5839 34.5666C19.0005 35.1166 18.8839 35.8999 18.3339 36.3166C18.0839 36.4999 17.8172 36.5666 17.5672 36.5666Z" fill="#475467"/>
<path d="M30.3334 36.9167C26.7 36.9167 23.75 33.9667 23.75 30.3334C23.75 26.7 26.7 23.75 30.3334 23.75C33.9667 23.75 36.9167 26.7 36.9167 30.3334C36.9167 33.9667 33.9667 36.9167 30.3334 36.9167ZM30.3334 26.25C28.0834 26.25 26.25 28.0834 26.25 30.3334C26.25 32.5834 28.0834 34.4167 30.3334 34.4167C32.5834 34.4167 34.4167 32.5834 34.4167 30.3334C34.4167 28.0834 32.5834 26.25 30.3334 26.25Z" fill="#475467"/>
<path d="M36.6664 37.9166C36.3497 37.9166 36.0331 37.8 35.7831 37.55L34.1164 35.8833C33.6331 35.4 33.6331 34.6 34.1164 34.1167C34.5997 33.6333 35.3997 33.6333 35.8831 34.1167L37.5497 35.7833C38.0331 36.2667 38.0331 37.0666 37.5497 37.55C37.2997 37.8 36.9831 37.9166 36.6664 37.9166Z" fill="#475467"/>
<path d="M26.6663 12.9167H13.333C12.6497 12.9167 12.083 12.3501 12.083 11.6667C12.083 10.9834 12.6497 10.4167 13.333 10.4167H26.6663C27.3497 10.4167 27.9163 10.9834 27.9163 11.6667C27.9163 12.3501 27.3497 12.9167 26.6663 12.9167Z" fill="#475467"/>
<path d="M25 19.5833H15C14.3167 19.5833 13.75 19.0166 13.75 18.3333C13.75 17.6499 14.3167 17.0833 15 17.0833H25C25.6833 17.0833 26.25 17.6499 26.25 18.3333C26.25 19.0166 25.6833 19.5833 25 19.5833Z" fill="#475467"/>
</svg>
