<svg width="22" height="22" viewBox="0 0 22 22" fill="none" xmlns="http://www.w3.org/2000/svg">
<g clip-path="url(#clip0_1_2)">
<path d="M11 1.83333C16.0545 1.83333 20.1667 5.9455 20.1667 11C20.1667 16.0545 16.0545 20.1667 11 20.1667C5.9455 20.1667 1.83333 16.0545 1.83333 11C1.83333 5.9455 5.9455 1.83333 11 1.83333ZM11 0C4.92525 0 0 4.92525 0 11C0 17.0748 4.92525 22 11 22C17.0748 22 22 17.0748 22 11C22 4.92525 17.0748 0 11 0ZM11 5.5C7.96308 5.5 5.5 7.96217 5.5 11C5.5 13.4301 7.07575 15.4917 9.262 16.2186C9.537 16.2699 9.625 16.0994 9.625 15.9537V14.9298C8.09508 15.2625 7.77608 14.2817 7.77608 14.2817C7.52675 13.6464 7.16558 13.4768 7.16558 13.4768C6.66692 13.1349 7.20317 13.1423 7.20317 13.1423C7.75592 13.1808 8.0465 13.7097 8.0465 13.7097C8.53692 14.5503 9.33258 14.3073 9.647 14.1671C9.6965 13.8114 9.83858 13.5694 9.99625 13.4319C8.77433 13.2926 7.491 12.8205 7.491 10.714C7.491 10.1136 7.7055 9.62317 8.0575 9.23817C8.00067 9.09792 7.81183 8.53783 8.11067 7.78067C8.11067 7.78067 8.57267 7.63308 9.62317 8.34442C10.0623 8.2225 10.5325 8.162 11 8.15925C11.4675 8.16108 11.9378 8.2225 12.3778 8.34442C13.4283 7.63308 13.8884 7.78067 13.8884 7.78067C14.1882 8.53783 13.9993 9.09792 13.9434 9.23633C14.2963 9.62133 14.509 10.1118 14.509 10.7122C14.509 12.8251 13.222 13.2898 11.9973 13.4255C12.1953 13.596 12.375 13.9306 12.375 14.4439V15.9528C12.375 16.0994 12.463 16.2708 12.7417 16.2168C14.9261 15.4898 16.5 13.4292 16.5 11C16.5 7.96217 14.0369 5.5 11 5.5Z" fill="#8CC2FD"/>
</g>
<defs>
<clipPath id="clip0_1_2">
<rect width="22" height="22" fill="white"/>
</clipPath>
</defs>
</svg>
