<svg width="111" height="26" viewBox="0 0 111 26" fill="none" xmlns="http://www.w3.org/2000/svg">
<path d="M14.0027 25.962L11.9926 25.962C12.3239 25.9873 12.6592 26.0005 12.9976 26.0005C13.336 26.0005 13.6714 25.9873 14.0027 25.962Z" fill="#0177FB"/>
<path d="M20.0549 23.9186C20.1917 23.8304 20.3264 23.7382 20.4602 23.645L5.53532 23.645C5.66906 23.7382 5.80381 23.8294 5.94059 23.9186L20.0549 23.9186Z" fill="#0177FB"/>
<path d="M22.5656 21.8011C22.7064 21.6481 22.8442 21.4911 22.978 21.331L3.01669 21.331C3.15043 21.4911 3.28822 21.6481 3.42905 21.8011L22.5656 21.8011Z" fill="#0177FB"/>
<path d="M24.1522 19.6779C24.2829 19.4601 24.4075 19.2372 24.5261 19.0113L1.47061 19.0113C1.58915 19.2372 1.71377 19.4601 1.84447 19.6779L24.1522 19.6779Z" fill="#0177FB"/>
<path d="M25.175 17.5605C25.2814 17.2768 25.3777 16.9891 25.4638 16.6973L0.532959 16.6973C0.619078 16.9901 0.716341 17.2778 0.82171 17.5605L25.175 17.5605Z" fill="#0177FB"/>
<path d="M25.7686 15.4399C25.8345 15.0914 25.8872 14.7378 25.9257 14.3791L0.0728607 14.3791C0.110348 14.7368 0.163031 15.0904 0.229899 15.4399L25.7696 15.4399L25.7686 15.4399Z" fill="#0177FB"/>
<path d="M0.00291729 13.3197L25.9935 13.3197C25.9965 13.2133 25.9976 13.1059 25.9976 12.9995C25.9976 12.6844 25.9854 12.3724 25.9641 12.0634L0.0333108 12.0634C0.0110213 12.3724 -0.000122098 12.6855 -0.000122084 12.9995C-0.00012208 13.1069 0.000888859 13.2133 0.00392834 13.3197L0.00291729 13.3197Z" fill="#0177FB"/>
<path d="M25.8731 11.2005C25.8042 10.706 25.71 10.2207 25.5874 9.74659L0.409354 9.74659C0.286761 10.2207 0.191524 10.706 0.123642 11.2005L25.8741 11.2005L25.8731 11.2005Z" fill="#0177FB"/>
<path d="M25.3957 9.08144C25.2163 8.51305 24.9985 7.9619 24.7462 7.431L1.24903 7.431C0.996753 7.96291 0.778923 8.51305 0.599594 9.08144L25.3957 9.08144Z" fill="#0177FB"/>
<path d="M24.512 6.96321C24.1706 6.31276 23.7754 5.69574 23.3327 5.11622L2.66421 5.11622C2.22146 5.69574 1.82633 6.31378 1.48489 6.96321L24.513 6.96321L24.512 6.96321Z" fill="#0177FB"/>
<path d="M2.87708 4.84221L23.119 4.84221C22.5091 4.08639 21.8171 3.40048 21.0552 2.79765L4.94088 2.79765C4.17898 3.40048 3.487 4.08639 2.87708 4.84221Z" fill="#0177FB"/>
<path d="M5.03795 2.72238L20.9587 2.72238C18.7592 1.01622 15.9973 2.17545e-05 12.9983 2.18856e-05C9.99939 2.20167e-05 7.23752 1.01622 5.03795 2.72238Z" fill="#0177FB"/>
<path d="M33.5531 21.0002V5.22994H43.656V7.62475H36.41V11.9061H42.963V14.3009H36.41V21.0002H33.5531ZM45.5067 21.0002V9.17252H48.2942V21.0002H45.5067ZM46.9081 7.49384C46.4666 7.49384 46.0868 7.34754 45.7685 7.05492C45.4502 6.75718 45.2911 6.40039 45.2911 5.98457C45.2911 5.56362 45.4502 5.20684 45.7685 4.91423C46.0868 4.61648 46.4666 4.46761 46.9081 4.46761C47.3548 4.46761 47.7346 4.61648 48.0478 4.91423C48.3661 5.20684 48.5252 5.56362 48.5252 5.98457C48.5252 6.40039 48.3661 6.75718 48.0478 7.05492C47.7346 7.34754 47.3548 7.49384 46.9081 7.49384ZM53.3193 14.0699V21.0002H50.5318V9.17252H53.1961V11.1823H53.3347C53.6068 10.5201 54.0406 9.99389 54.6361 9.60374C55.2367 9.21359 55.9785 9.01851 56.8615 9.01851C57.6777 9.01851 58.3887 9.19305 58.9945 9.54213C59.6054 9.89122 60.0777 10.3969 60.4113 11.0591C60.7502 11.7213 60.917 12.5247 60.9119 13.4693V21.0002H58.1243V13.9005C58.1243 13.11 57.919 12.4914 57.5083 12.0447C57.1028 11.5981 56.5406 11.3748 55.8219 11.3748C55.3343 11.3748 54.9005 11.4826 54.5206 11.6982C54.1458 11.9087 53.8507 12.2142 53.635 12.6146C53.4246 13.015 53.3193 13.5001 53.3193 14.0699ZM66.5203 21.239C65.7708 21.239 65.0957 21.1055 64.4951 20.8385C63.8996 20.5665 63.4273 20.166 63.0783 19.6373C62.7343 19.1085 62.5623 18.4566 62.5623 17.6814C62.5623 17.014 62.6855 16.4622 62.9319 16.0258C63.1784 15.5895 63.5146 15.2404 63.9407 14.9786C64.3668 14.7168 64.8468 14.5191 65.3807 14.3856C65.9197 14.247 66.4767 14.1469 67.0516 14.0853C67.7447 14.0135 68.3068 13.9493 68.738 13.8928C69.1692 13.8312 69.4824 13.7388 69.6774 13.6156C69.8777 13.4873 69.9778 13.2896 69.9778 13.0227V12.9765C69.9778 12.3964 69.8058 11.9472 69.4618 11.6289C69.1179 11.3106 68.6225 11.1515 67.9757 11.1515C67.2929 11.1515 66.7513 11.3004 66.3509 11.5981C65.9556 11.8959 65.6887 12.2475 65.5501 12.6531L62.9473 12.2835C63.1527 11.5648 63.4915 10.9641 63.9638 10.4816C64.4361 9.99389 65.0136 9.6294 65.6964 9.38813C66.3791 9.14172 67.1338 9.01851 67.9603 9.01851C68.5301 9.01851 69.0974 9.08525 69.662 9.21872C70.2267 9.35219 70.7427 9.57293 71.2098 9.88095C71.677 10.1838 72.0517 10.5971 72.3341 11.1207C72.6215 11.6443 72.7653 12.2989 72.7653 13.0843V21.0002H70.0856V19.3755H69.9932C69.8238 19.704 69.585 20.012 69.277 20.2995C68.9741 20.5819 68.5917 20.8103 68.1297 20.9848C67.6728 21.1543 67.1363 21.239 66.5203 21.239ZM67.2441 19.1907C67.8037 19.1907 68.2888 19.0803 68.6995 18.8595C69.1102 18.6337 69.4259 18.3359 69.6466 17.9663C69.8725 17.5967 69.9855 17.1937 69.9855 16.7574V15.3636C69.8982 15.4355 69.7493 15.5022 69.5388 15.5638C69.3335 15.6254 69.1025 15.6793 68.8458 15.7255C68.5891 15.7717 68.335 15.8128 68.0835 15.8487C67.8319 15.8846 67.6138 15.9155 67.4289 15.9411C67.0131 15.9976 66.6409 16.09 66.3124 16.2183C65.9838 16.3467 65.7246 16.5263 65.5347 16.7574C65.3447 16.9832 65.2497 17.2758 65.2497 17.6352C65.2497 18.1486 65.4371 18.5361 65.8119 18.7979C66.1866 19.0598 66.664 19.1907 67.2441 19.1907ZM77.7269 14.0699V21.0002H74.9394V9.17252H77.6037V11.1823H77.7423C78.0144 10.5201 78.4482 9.99389 79.0436 9.60374C79.6443 9.21359 80.3861 9.01851 81.269 9.01851C82.0853 9.01851 82.7963 9.19305 83.402 9.54213C84.0129 9.89122 84.4852 10.3969 84.8189 11.0591C85.1577 11.7213 85.3246 12.5247 85.3194 13.4693V21.0002H82.5319V13.9005C82.5319 13.11 82.3266 12.4914 81.9159 12.0447C81.5103 11.5981 80.9482 11.3748 80.2295 11.3748C79.7418 11.3748 79.308 11.4826 78.9281 11.6982C78.5534 11.9087 78.2582 12.2142 78.0426 12.6146C77.8321 13.015 77.7269 13.5001 77.7269 14.0699ZM92.6835 21.2313C91.5028 21.2313 90.4889 20.972 89.6419 20.4535C88.8 19.935 88.1506 19.2189 87.6937 18.3051C87.242 17.3862 87.0161 16.3287 87.0161 15.1326C87.0161 13.9313 87.2471 12.8712 87.7091 11.9523C88.1711 11.0283 88.8231 10.3096 89.665 9.79624C90.512 9.27776 91.5131 9.01851 92.6681 9.01851C93.6281 9.01851 94.4777 9.19562 95.217 9.54983C95.9613 9.89892 96.5543 10.3943 96.9957 11.036C97.4372 11.6726 97.6888 12.4169 97.7504 13.2691H95.0861C94.9782 12.6993 94.7216 12.2244 94.316 11.8445C93.9156 11.4595 93.3791 11.267 92.7066 11.267C92.1368 11.267 91.6363 11.421 91.2051 11.729C90.7739 12.0319 90.4376 12.4683 90.1963 13.0381C89.9602 13.6079 89.8421 14.2907 89.8421 15.0864C89.8421 15.8923 89.9602 16.5854 90.1963 17.1655C90.4325 17.7404 90.7636 18.1845 91.1897 18.4976C91.6209 18.8056 92.1266 18.9597 92.7066 18.9597C93.1173 18.9597 93.4844 18.8826 93.8078 18.7286C94.1363 18.5695 94.411 18.3411 94.6317 18.0433C94.8525 17.7456 95.0039 17.3836 95.0861 16.9576H97.7504C97.6836 17.7943 97.4372 18.5361 97.0111 19.183C96.5851 19.8247 96.005 20.3277 95.2709 20.6922C94.5368 21.0516 93.6743 21.2313 92.6835 21.2313ZM104.647 21.2313C103.461 21.2313 102.437 20.9848 101.574 20.492C100.717 19.9941 100.057 19.2908 99.5953 18.3821C99.1332 17.4684 98.9022 16.3929 98.9022 15.1557C98.9022 13.939 99.1332 12.8712 99.5953 11.9523C100.062 11.0283 100.714 10.3096 101.551 9.79624C102.388 9.27776 103.371 9.01851 104.5 9.01851C105.229 9.01851 105.917 9.13658 106.564 9.37273C107.216 9.60374 107.791 9.96309 108.289 10.4508C108.792 10.9385 109.187 11.5596 109.475 12.3143C109.762 13.0638 109.906 13.957 109.906 14.994V15.8487H100.211V13.9698H107.234C107.229 13.4359 107.113 12.9611 106.887 12.5453C106.662 12.1243 106.346 11.7932 105.94 11.5519C105.54 11.3106 105.073 11.19 104.539 11.19C103.969 11.19 103.469 11.3286 103.037 11.6058C102.606 11.8779 102.27 12.2373 102.029 12.6839C101.792 13.1254 101.672 13.6105 101.667 14.1392V15.7794C101.667 16.4673 101.792 17.0577 102.044 17.5505C102.296 18.0382 102.647 18.4129 103.099 18.6747C103.551 18.9314 104.079 19.0598 104.685 19.0598C105.091 19.0598 105.458 19.0033 105.786 18.8904C106.115 18.7723 106.4 18.6003 106.641 18.3744C106.882 18.1486 107.065 17.8688 107.188 17.5351L109.791 17.8277C109.626 18.5156 109.313 19.1162 108.851 19.6296C108.394 20.1378 107.809 20.5331 107.095 20.8154C106.382 21.0926 105.566 21.2313 104.647 21.2313Z" fill="black"/>
</svg>
