<svg width="52" height="52" viewBox="0 0 52 52" fill="none" xmlns="http://www.w3.org/2000/svg">
<rect width="52" height="52" rx="8" fill="#0B141E"/>
<path d="M32.7889 31.0654L39.4303 27.2305C39.7824 27.0268 40 26.649 40 26.2435V18.5736C40 18.1681 39.7824 17.7904 39.4303 17.5866L32.7889 13.7517C32.4368 13.5479 31.9997 13.5499 31.6496 13.7517L25.0081 17.5866C24.6561 17.7904 24.4385 18.1681 24.4385 18.5736V32.2798L19.7807 34.9677L15.123 32.2798V26.9022L19.7807 24.2144L22.8523 25.9884V22.3809L20.3503 20.9351C20.1782 20.8362 19.9805 20.7828 19.7807 20.7828C19.5809 20.7828 19.3832 20.8362 19.2112 20.9351L12.5696 24.7701C12.2176 24.9738 12 25.3516 12 25.757V33.427C12 33.8325 12.2176 34.2102 12.5696 34.4139L19.2112 38.2489C19.5631 38.4506 19.9983 38.4506 20.3503 38.2489L26.9919 34.4139C27.344 34.2102 27.5614 33.8325 27.5614 33.427V19.7187L27.6445 19.6713L32.2173 17.0309L36.8751 19.7187V25.0964L32.2173 27.7843L29.1496 26.0141V29.6217L31.6476 31.0635C31.9997 31.2652 32.4368 31.2652 32.7869 31.0635L32.7889 31.0654Z" fill="url(#paint0_linear_25_16509)"/>
<defs>
<linearGradient id="paint0_linear_25_16509" x1="11.909" y1="34.1785" x2="38.7975" y2="18.5716" gradientUnits="userSpaceOnUse">
<stop stop-color="#A726C1"/>
<stop offset="0.88" stop-color="#803BDF"/>
<stop offset="1" stop-color="#7B3FE4"/>
</linearGradient>
</defs>
</svg>
