<svg width="24" height="24" viewBox="0 0 24 24" fill="none" xmlns="http://www.w3.org/2000/svg">
<g clip-path="url(#clip0_121_754)">
<path d="M12 0C5.37288 0 -2.08616e-07 5.37288 -2.08616e-07 12C-2.08616e-07 18.6271 5.37312 24 12 24C18.6269 24 24 18.6286 24 12C24 5.37144 18.6278 0 12 0Z" fill="#53AE94"/>
<path d="M10.8035 10.505V8.71992H6.72138V6H17.8372V8.71992H13.7546V10.5036C17.0726 10.656 19.5674 11.3131 19.5674 12.1003C19.5674 12.8875 17.0714 13.5446 13.7546 13.698V19.416H10.8026V13.6975C7.49058 13.5446 5.00082 12.888 5.00082 12.1015C5.00082 11.315 7.49058 10.6584 10.8026 10.5055M10.8026 13.2132V13.2118C10.8859 13.217 11.3138 13.2427 12.2666 13.2427C13.0283 13.2427 13.5643 13.2211 13.7531 13.2113V13.2137C16.6845 13.0838 18.8726 12.5734 18.8726 11.9626C18.8726 11.3518 16.6843 10.842 13.7531 10.7119V12.7051C13.5611 12.7183 13.012 12.7507 12.2541 12.7507C11.3438 12.7507 10.8861 12.7128 10.8021 12.7051V10.7119C7.8765 10.8422 5.69346 11.3532 5.69346 11.9618C5.69346 12.5705 7.87746 13.0817 10.8021 13.212" fill="white"/>
</g>
<defs>
<clipPath id="clip0_121_754">
<rect width="24" height="24" fill="white" transform="matrix(-1 0 0 1 24 0)"/>
</clipPath>
</defs>
</svg>
