<svg width="24" height="24" viewBox="0 0 24 24" fill="none" xmlns="http://www.w3.org/2000/svg">
<circle cx="12" cy="12" r="12" fill="#E2E6F3"/>
<path d="M5.44302 8.86391V15.1359C5.44302 15.5391 5.65422 15.9039 6.00622 16.1087L11.4398 19.2447C11.7854 19.4431 12.2142 19.4431 12.5598 19.2447L17.9934 16.1087C18.339 15.9103 18.5566 15.5391 18.5566 15.1359V8.86391C18.5566 8.46071 18.3454 8.09591 17.9934 7.89111L12.5598 4.75511C12.2142 4.55671 11.7854 4.55671 11.4398 4.75511L6.00622 7.89111C5.66062 8.08951 5.44942 8.46071 5.44942 8.86391H5.44302Z" fill="#213147"/>
<path d="M13.1889 13.2158L12.4145 15.3406C12.3953 15.3982 12.3953 15.4622 12.4145 15.5262L13.7457 19.1806L15.2881 18.291L13.4385 13.2158C13.3937 13.1006 13.2337 13.1006 13.1889 13.2158Z" fill="#12AAFF"/>
<path d="M14.7407 9.64469C14.6959 9.52949 14.5359 9.52949 14.4911 9.64469L13.7167 11.7695C13.6975 11.8271 13.6975 11.8911 13.7167 11.9551L15.8991 17.9391L17.4415 17.0495L14.7407 9.65109V9.64469Z" fill="#12AAFF"/>
<path d="M11.9937 4.992C12.0321 4.992 12.0705 5.0048 12.1025 5.024L17.9777 8.416C18.0481 8.4544 18.0865 8.5312 18.0865 8.608V15.392C18.0865 15.4688 18.0417 15.5456 17.9777 15.584L12.1025 18.976C12.0705 18.9952 12.0321 19.008 11.9937 19.008C11.9553 19.008 11.9169 18.9952 11.8849 18.976L6.00968 15.584C5.93928 15.5456 5.90088 15.4688 5.90088 15.392V8.6016C5.90088 8.5248 5.94568 8.448 6.00968 8.4096L11.8849 5.0176C11.9169 4.9984 11.9553 4.9856 11.9937 4.9856V4.992ZM11.9937 4C11.7825 4 11.5777 4.0512 11.3857 4.16L5.51048 7.552C5.13288 7.7696 4.90248 8.1664 4.90248 8.6016V15.3856C4.90248 15.8208 5.13288 16.2176 5.51048 16.4352L11.3857 19.8272C11.5713 19.936 11.7825 19.9872 11.9937 19.9872C12.2049 19.9872 12.4097 19.936 12.6017 19.8272L18.4769 16.4352C18.8545 16.2176 19.0849 15.8208 19.0849 15.3856V8.6016C19.0849 8.1664 18.8545 7.7696 18.4769 7.552L12.5953 4.16C12.4097 4.0512 12.1985 4 11.9873 4H11.9937Z" fill="#9DCCED"/>
<path d="M8.10646 17.9455L8.65046 16.4607L9.73846 17.3631L8.72086 18.2975L8.10646 17.9455Z" fill="#213147"/>
<path d="M11.498 8.12163H10.0068C9.89796 8.12163 9.79556 8.19203 9.75716 8.29443L6.56356 17.0496L8.10596 17.9392L11.626 8.29443C11.658 8.20483 11.594 8.11523 11.5044 8.11523L11.498 8.12163Z" fill="white"/>
<path d="M14.1062 8.12163H12.615C12.5062 8.12163 12.4038 8.19203 12.3654 8.29443L8.71745 18.2912L10.2598 19.1808L14.2278 8.29443C14.2598 8.20483 14.1958 8.11523 14.1062 8.11523V8.12163Z" fill="white"/>
</svg>
