<svg width="24" height="24" viewBox="0 0 24 24" fill="none" xmlns="http://www.w3.org/2000/svg">
<g clip-path="url(#clip0_37_37)">
<path d="M12 0C5.37288 0 -2.08616e-07 5.37288 -2.08616e-07 12C-2.08616e-07 18.6271 5.37312 24 12 24C18.6269 24 24 18.6286 24 12C24 5.37144 18.6278 0 12 0Z" fill="url(#paint0_linear_37_37)"/>
<path d="M12 1.91943C6.43288 1.91943 1.91937 6.43294 1.91937 12.0001C1.91937 17.5672 6.43308 22.0807 12 22.0807C17.5669 22.0807 22.0806 17.5684 22.0806 12.0001C22.0806 6.43171 17.5678 1.91943 12 1.91943Z" stroke="#D37B00" stroke-width="0.5"/>
<rect x="12" y="7.85889" width="5.66541" height="5.66541" transform="rotate(45 12 7.85889)" fill="white"/>
</g>
<defs>
<linearGradient id="paint0_linear_37_37" x1="12" y1="0" x2="12" y2="24" gradientUnits="userSpaceOnUse">
<stop stop-color="#F7CE03"/>
<stop offset="1" stop-color="#F58700"/>
</linearGradient>
<clipPath id="clip0_37_37">
<rect width="24" height="24" rx="12" transform="matrix(-1 0 0 1 24 0)" fill="white"/>
</clipPath>
</defs>
</svg>
