<svg width="12" height="12" viewBox="0 0 12 12" fill="none" xmlns="http://www.w3.org/2000/svg">
<path d="M6.5 5.87487C6.405 5.87487 6.31 5.83987 6.235 5.76487C6.09 5.61987 6.09 5.37987 6.235 5.23487L10.335 1.13487C10.48 0.989873 10.72 0.989873 10.865 1.13487C11.01 1.27987 11.01 1.51987 10.865 1.66487L6.765 5.76487C6.69 5.83987 6.595 5.87487 6.5 5.87487Z" fill="#0177FB" stroke="#0177FB"/>
<path d="M11 3.775C10.795 3.775 10.625 3.605 10.625 3.4V1.375H8.60001C8.39501 1.375 8.22501 1.205 8.22501 1C8.22501 0.795 8.39501 0.625 8.60001 0.625H11C11.205 0.625 11.375 0.795 11.375 1V3.4C11.375 3.605 11.205 3.775 11 3.775Z" fill="#0177FB" stroke="#0177FB"/>
<path d="M7.50001 11.375H4.50001C1.78501 11.375 0.625008 10.215 0.625008 7.5V4.5C0.625008 1.785 1.78501 0.625 4.50001 0.625H5.50001C5.70501 0.625 5.87501 0.795 5.87501 1C5.87501 1.205 5.70501 1.375 5.50001 1.375H4.50001C2.19501 1.375 1.37501 2.195 1.37501 4.5V7.5C1.37501 9.805 2.19501 10.625 4.50001 10.625H7.50001C9.80501 10.625 10.625 9.805 10.625 7.5V6.5C10.625 6.295 10.795 6.125 11 6.125C11.205 6.125 11.375 6.295 11.375 6.5V7.5C11.375 10.215 10.215 11.375 7.50001 11.375Z" fill="#0177FB" stroke="#0177FB"/>
</svg>
