<svg width="37" height="37" viewBox="0 0 37 37" fill="none" xmlns="http://www.w3.org/2000/svg">
<circle cx="18.2173" cy="18.7368" r="18" fill="#3B99FC" fill-opacity="0.15"/>
<g clip-path="url(#clip0_4_107)">
<path d="M12.3143 14.2769C15.5754 10.8901 20.8643 10.8901 24.1254 14.2769L24.5176 14.6818C24.6827 14.8514 24.6827 15.125 24.5176 15.2946L23.176 16.6898C23.0934 16.7719 22.9644 16.7719 22.8819 16.6898L22.3401 16.1262C20.0646 13.7626 16.3752 13.7626 14.0996 16.1262L13.5217 16.7281C13.4392 16.8102 13.3102 16.8102 13.2276 16.7281L11.8809 15.3384C11.7157 15.1687 11.7157 14.8952 11.8809 14.7256L12.3143 14.2769ZM26.9015 17.1603L28.0986 18.4023C28.2637 18.5719 28.2637 18.8455 28.0986 19.0151L22.7064 24.6123C22.5413 24.782 22.2782 24.782 22.1182 24.6123L18.2947 20.6401C18.2534 20.5963 18.1863 20.5963 18.145 20.6401L14.3215 24.6123C14.1564 24.782 13.8932 24.782 13.7333 24.6123L8.34112 19.0151C8.17601 18.8455 8.17601 18.5719 8.34112 18.4023L9.53823 17.1603C9.70335 16.9907 9.96651 16.9907 10.1265 17.1603L13.95 21.1325C13.9913 21.1763 14.0584 21.1763 14.0996 21.1325L17.9232 17.1603C18.0883 16.9907 18.3514 16.9907 18.5114 17.1603L22.3349 21.1325C22.3762 21.1763 22.4433 21.1763 22.4846 21.1325L26.3081 17.1603C26.4732 16.9907 26.7364 16.9907 26.9015 17.1603Z" fill="#3B99FC"/>
</g>
<defs>
<clipPath id="clip0_4_107">
<rect width="20" height="13" fill="white" transform="translate(8.21729 11.7368)"/>
</clipPath>
</defs>
</svg>
