<svg width="24" height="24" viewBox="0 0 24 24" fill="none" xmlns="http://www.w3.org/2000/svg">
<path d="M0.00871623 10.854C0.380993 -2.03095 21.2425 -5.12267 24 10.854C22.5914 11.5616 21.9819 11.852 21.9819 11.852C21.9819 11.852 22.6924 12.2737 23.9958 13.0728C22.9062 26.479 2.40416 28.7537 0 13.0908C1.33078 12.2405 1.969 11.8584 1.969 11.8584C1.969 11.8584 1.21283 11.4788 0.00871623 10.854Z" fill="#B7B5B1"/>
<path d="M23.0266 10.2362C19.2883 -3.96055 2.15499 -0.11976 0.981411 10.2362C3.35865 11.5737 3.89807 11.8881 3.89807 11.8881C3.89807 11.8881 2.97931 12.4756 0.973328 13.7497C3.52361 27.3977 22.0098 24.7751 23.0231 13.7331C21.1575 12.5637 20.0566 11.8823 20.0566 11.8823C20.0566 11.8823 22.572 10.4762 23.0266 10.2362ZM13.7352 16.4507L11.7787 13.0874L9.78723 16.4507L8.28503 16.3477L11.1148 11.5773L8.56452 7.45908L10.1017 7.32168L11.9184 10.3761L13.7352 7.45901L15.1678 7.49332L12.7918 11.5429L15.412 16.4161L13.7352 16.4507Z" fill="#244B81"/>
</svg>
