<svg width="24" height="24" viewBox="0 0 24 24" fill="none" xmlns="http://www.w3.org/2000/svg">
<circle cx="12" cy="12" r="12" fill="#303030"/>
<path d="M13.6747 11.8302L18.3893 5.82129H15.6041C15.0272 5.8278 14.5304 6.0994 14.1106 6.63955L11.7709 9.63749L9.43119 6.63955C9.00492 6.09296 8.50491 5.82129 7.93761 5.82129H6.09796C5.78382 5.82129 5.62678 5.9539 5.62678 6.21913C5.62678 6.35167 5.68769 6.49073 5.80627 6.64274L9.86384 11.8302L7.32224 15.1031L5.55949 17.3702C5.44091 17.5254 5.38 17.6645 5.38 17.7906C5.41523 18.0494 5.57227 18.1787 5.85756 18.1787H7.67799C8.24852 18.1787 8.74208 17.9103 9.16518 17.3702L11.7709 14.0164L14.3734 17.3702C14.7932 17.9103 15.29 18.1787 15.8606 18.1787H18.6201L13.6747 11.8302Z" fill="#9FF3FF"/>
<path d="M14.2067 11.5586L16.8547 14.6479V8.46924L14.2067 11.5586Z" fill="#9FF3FF"/>
</svg>
