<svg width="28" height="28" viewBox="0 0 28 28" fill="none" xmlns="http://www.w3.org/2000/svg">
<rect width="28" height="28" rx="7.25926" fill="#0B141E"/>
<path d="M14 16.334L16.332 19.8734L18.4862 18.6661L15.4237 13.998L14 16.334Z" fill="#24A2EE"/>
<path d="M20.7283 17.2858L20.7268 16.284L17.4563 11.0625L16.2422 13.1726L19.3994 18.4066L20.5416 17.7286C20.5969 17.6826 20.6421 17.6253 20.6743 17.5602C20.7065 17.4951 20.7249 17.4238 20.7284 17.3509L20.7283 17.2858Z" fill="#24A2EE"/>
<path d="M6.52344 18.1924L8.07838 19.1413L13.2528 10.3529L12.3746 10.3288C11.6264 10.3176 10.8204 10.5235 10.4505 11.1632L7.5121 15.9866L6.52401 17.5952V18.1929L6.52344 18.1924Z" fill="#24A2EE"/>
<path d="M16.9982 10.3281L14.4772 10.337L8.77344 19.4932L10.767 20.6099L11.3091 19.7154L16.9982 10.3281Z" fill="#24A2EE"/>
<path d="M21.4776 10.6334C21.4664 10.3913 21.3942 10.1554 21.2672 9.94605C21.1402 9.73674 20.9622 9.56029 20.7486 9.43192L14.6871 6.07742C14.4707 5.97509 14.2328 5.92187 13.9917 5.92188C13.7506 5.92188 13.5127 5.97509 13.2963 6.07742C13.2457 6.10194 7.40164 9.36376 7.40164 9.36376C7.32044 9.40128 7.24278 9.4455 7.16952 9.49594C6.97976 9.6258 6.82305 9.79536 6.71114 9.99187C6.59924 10.1884 6.53507 10.4067 6.52344 10.6305V17.5779L7.56435 16.0381L7.55634 10.6779C7.56121 10.6044 7.58295 10.5328 7.62001 10.4684C7.65706 10.404 7.7085 10.3483 7.77062 10.3053C7.79814 10.2863 13.742 6.97528 13.7609 6.96619C13.8321 6.93286 13.9101 6.91536 13.9893 6.915C14.0684 6.91464 14.1466 6.93143 14.2181 6.96411L20.2012 10.2761C20.2709 10.3187 20.3289 10.3768 20.3703 10.4455C20.4118 10.5142 20.4354 10.5915 20.4393 10.6708V17.3112C20.4378 17.3801 20.4211 17.4478 20.3903 17.51C20.3595 17.5721 20.3152 17.6272 20.2604 17.6715L19.0999 18.3184L18.5016 18.6523L16.3624 19.8453L14.1928 21.0554C14.0729 21.0961 13.9417 21.0936 13.8235 21.0483L11.2567 19.6276L10.7324 20.4833L13.0392 21.7614C13.1155 21.8031 13.1835 21.8402 13.2393 21.8703C13.3256 21.9164 13.3845 21.948 13.4052 21.9577C13.5982 22.0391 13.8069 22.0804 14.0176 22.079C14.2108 22.0792 14.4024 22.0445 14.5823 21.9767L20.8837 18.4649C21.0614 18.3318 21.2067 18.1629 21.3093 17.9699C21.4119 17.7769 21.4692 17.5647 21.4773 17.3481L21.4776 10.6334Z" fill="#24A2EE"/>
</svg>
