<svg width="28" height="28" viewBox="0 0 28 28" fill="none" xmlns="http://www.w3.org/2000/svg">
<rect width="28" height="28" rx="7.25926" fill="#0B141E"/>
<path d="M10.7043 15.1096C11.1642 15.1096 11.6128 14.9563 11.9755 14.6759L9.05934 11.7598C8.35648 12.6682 8.52472 13.9768 9.4332 14.6796C9.79959 14.9563 10.2445 15.1096 10.7043 15.1096Z" fill="#3E6957"/>
<path d="M19.381 13.027C19.381 12.5671 19.2278 12.1185 18.9474 11.7559L16.0312 14.672C16.9397 15.3748 18.2445 15.2066 18.9474 14.2981C19.2278 13.9355 19.381 13.4868 19.381 13.027Z" fill="#3E6957"/>
<path d="M20.846 9.85352L19.5562 11.1433C20.5955 12.3883 20.431 14.2426 19.1861 15.282C18.0944 16.1942 16.5092 16.1942 15.4176 15.282L14.0006 16.6989L12.5874 15.2857C11.3425 16.3251 9.48812 16.1606 8.44879 14.9156C7.53657 13.8239 7.53657 12.2387 8.44879 11.1471L7.78706 10.4853L7.15897 9.85352C6.40003 11.1022 6 12.5378 6 13.9996C6 18.4187 9.58159 22.0003 14.0006 22.0003C18.4197 22.0003 22.0013 18.4187 22.0013 13.9996C22.005 12.5378 21.6012 11.1022 20.846 9.85352Z" fill="#3E6957"/>
<path d="M19.784 8.47817C16.737 5.28165 11.6749 5.16202 8.47841 8.20899C8.38494 8.29871 8.29522 8.38844 8.20923 8.47817C8.01108 8.68753 7.82415 8.90437 7.64844 9.13242L13.9966 15.4843L20.3448 9.13242C20.1728 8.90437 19.9821 8.68753 19.784 8.47817ZM13.9966 7.04628C15.8659 7.04628 17.6081 7.76783 18.9166 9.08382L13.9966 14.0038L9.07659 9.08382C10.3851 7.76783 12.1273 7.04628 13.9966 7.04628Z" fill="#3E6957"/>
</svg>
