<svg width="28" height="28" viewBox="0 0 28 28" fill="none" xmlns="http://www.w3.org/2000/svg">
<rect width="28" height="28" rx="7.25926" fill="#0B141E"/>
<path d="M8.99408 11.4609L6.41626 10.1484C6.21462 10.5446 6.0429 10.96 5.90625 11.383L8.65881 12.273C8.74876 11.9948 8.8613 11.7215 8.99408 11.4609Z" fill="white"/>
<path d="M11.1874 9.14844L12.6152 11.6086C12.8237 11.4876 13.0469 11.3946 13.2791 11.3322L12.5401 8.58527C12.7282 8.5347 12.9193 8.49296 13.1115 8.46261L12.6574 5.60547C12.2182 5.67519 11.7818 5.78042 11.36 5.91793L12.2429 8.62401C11.9621 8.71568 11.6886 8.82952 11.4252 8.96423L10.1273 6.43096C9.73267 6.63324 9.35092 6.86823 8.99219 7.13013L10.6976 9.46673C10.8547 9.35223 11.0191 9.24635 11.1874 9.14844Z" fill="white"/>
<path d="M18.85 11.1845L16.3907 12.6137C16.5119 12.822 16.6049 13.0453 16.6675 13.2771L19.4142 12.5368C19.4648 12.7249 19.5066 12.9158 19.5371 13.1077L22.3938 12.6528C22.3239 12.2138 22.2184 11.7772 22.0805 11.3552L19.3749 12.2399C19.283 11.9591 19.1691 11.6857 19.0342 11.4223L21.5666 10.1228C21.3643 9.72857 21.1289 9.3468 20.867 8.98828L18.5311 10.6948C18.6458 10.8519 18.7521 11.0161 18.85 11.1845Z" fill="white"/>
<path d="M17.8497 6.41952C17.4531 6.2181 17.0377 6.04659 16.6151 5.91016L15.7266 8.66315C16.0046 8.75288 16.2779 8.86564 16.5389 8.99821L17.8497 6.41952Z" fill="white"/>
<path d="M16.827 9.09631L15.3828 11.6027C15.592 11.7232 15.7848 11.8708 15.9563 12.0417L20.0067 7.9775C19.6925 7.66439 19.3512 7.37367 18.9923 7.11328L17.3217 9.41716C17.1625 9.30182 16.9974 9.19465 16.827 9.09631Z" fill="white"/>
<path d="M9.09892 11.176L11.6046 12.6217C11.7251 12.4128 11.8732 12.2197 12.0443 12.048L7.98184 7.99609C7.66852 8.31028 7.37758 8.65136 7.11719 9.01009L9.42021 10.6817C9.30486 10.8407 9.19726 11.0056 9.09892 11.176Z" fill="white"/>
<path d="M14.8758 8.41353L15.3128 5.60114C14.8809 5.534 14.4389 5.5 13.9988 5.5H13.9922V11.238H13.9988C14.2407 11.238 14.48 11.269 14.7103 11.3301L15.4523 8.53403C15.2625 8.48368 15.0701 8.44387 14.8758 8.41353Z" fill="white"/>
<path d="M11.3303 13.2849L8.53468 12.541C8.48411 12.7308 8.44409 12.9232 8.41374 13.1175L5.60179 12.6792C5.53422 13.1126 5.5 13.5563 5.5 13.9977H11.238C11.238 13.7554 11.269 13.5154 11.3303 13.2849Z" fill="white"/>
<path d="M19.0004 16.5387L21.5782 17.8512C21.7798 17.455 21.9515 17.0397 22.0882 16.6166L19.3356 15.7266C19.2456 16.0048 19.1331 16.2781 19.0004 16.5387Z" fill="white"/>
<path d="M16.8183 18.8507L15.3904 16.3906C15.1819 16.5115 14.9588 16.6045 14.7266 16.6669L15.4656 19.4139C15.2772 19.4645 15.0864 19.5062 14.8942 19.5366L15.348 22.3935C15.7873 22.3237 16.2237 22.2185 16.6455 22.081L15.7625 19.3749C16.0436 19.2833 16.3169 19.1694 16.5803 19.0347L17.8781 21.568C18.2727 21.3657 18.6545 21.1307 19.0132 20.8688L17.3078 18.5322C17.1507 18.6467 16.9866 18.7528 16.8183 18.8507Z" fill="white"/>
<path d="M9.15321 16.8132L11.6127 15.3842C11.4915 15.1758 11.3985 14.9525 11.3359 14.7207L8.58918 15.461C8.53861 15.2729 8.49686 15.082 8.46631 14.89L5.60938 15.345C5.67931 15.784 5.78476 16.2206 5.9227 16.6426L8.62835 15.7579C8.72023 16.0388 8.83407 16.3121 8.969 16.5755L6.43659 17.875C6.63887 18.2693 6.87429 18.651 7.13618 19.0095L9.47213 17.303C9.35743 17.1459 9.25112 16.9817 9.15321 16.8132Z" fill="white"/>
<path d="M10.1562 21.5826C10.5528 21.7841 10.9682 21.9555 11.3908 22.092L12.2794 19.339C12.0013 19.2492 11.7281 19.1365 11.467 19.0039L10.1562 21.5826Z" fill="white"/>
<path d="M11.1797 18.9043L12.6239 16.398C12.4147 16.2774 12.2219 16.1298 12.0504 15.959L8 20.0231C8.31418 20.3362 8.65549 20.627 9.01443 20.8874L10.685 18.5835C10.8443 18.6988 11.0093 18.806 11.1797 18.9043Z" fill="white"/>
<path d="M18.8985 16.8226L16.3927 15.377C16.2722 15.5859 16.1242 15.7789 15.9531 15.9506L20.0154 20.0028C20.3287 19.6886 20.6196 19.3475 20.88 18.9888L18.577 17.3171C18.6924 17.1581 18.8002 16.993 18.8985 16.8226Z" fill="white"/>
<path d="M13.2889 16.6699L12.5469 19.466C12.7367 19.5163 12.9291 19.5561 13.1234 19.5865L12.6866 22.3988C13.1184 22.466 13.5604 22.5 14.0005 22.5H14.0072V16.762H14.0005C13.7586 16.762 13.5191 16.731 13.2889 16.6699Z" fill="white"/>
<path d="M16.7643 14C16.7643 14.2423 16.7331 14.482 16.6718 14.7127L19.4673 15.4566C19.5179 15.2668 19.558 15.0744 19.5883 14.8801L22.4005 15.3187C22.468 14.8853 22.5022 14.4416 22.5022 14.0002L16.7643 14Z" fill="white"/>
</svg>
