<svg width="28" height="28" viewBox="0 0 28 28" fill="none" xmlns="http://www.w3.org/2000/svg">
<rect width="28" height="28" rx="7.25926" fill="#0B141E"/>
<path d="M18.1218 17.0769L22.1541 14.7486C22.3679 14.6249 22.5 14.3955 22.5 14.1493V9.49256C22.5 9.24639 22.3679 9.01704 22.1541 8.89335L18.1218 6.56497C17.908 6.44129 17.6427 6.44249 17.4301 6.56497L13.3978 8.89335C13.1841 9.01704 13.052 9.24639 13.052 9.49256V17.8142L10.224 19.4461L7.39609 17.8142V14.5492L10.224 12.9173L12.0889 13.9944V11.8041L10.5698 10.9263C10.4654 10.8663 10.3453 10.8339 10.224 10.8339C10.1027 10.8339 9.98268 10.8663 9.87821 10.9263L5.84584 13.2547C5.63209 13.3784 5.5 13.6078 5.5 13.8539V18.5107C5.5 18.7569 5.63209 18.9862 5.84584 19.1099L9.87821 21.4383C10.0919 21.5608 10.3561 21.5608 10.5698 21.4383L14.6022 19.1099C14.816 18.9862 14.948 18.7569 14.948 18.5107V10.1878L14.9984 10.159L17.7748 8.55592L20.6027 10.1878V13.4529L17.7748 15.0848L15.9123 14.01V16.2004L17.4289 17.0758C17.6427 17.1982 17.908 17.1982 18.1206 17.0758L18.1218 17.0769Z" fill="url(#paint0_linear_21_15397)"/>
<defs>
<linearGradient id="paint0_linear_21_15397" x1="5.44476" y1="18.967" x2="21.7699" y2="9.49136" gradientUnits="userSpaceOnUse">
<stop stop-color="#A726C1"/>
<stop offset="0.88" stop-color="#803BDF"/>
<stop offset="1" stop-color="#7B3FE4"/>
</linearGradient>
</defs>
</svg>
